<?xml version="1.0" encoding="UTF-8" standalone="no"?>
<!DOCTYPE svg PUBLIC "-//W3C//DTD SVG 1.1//EN" "http://www.w3.org/Graphics/SVG/1.1/DTD/svg11.dtd">
<svg xmlns="http://www.w3.org/2000/svg" xmlns:xlink="http://www.w3.org/1999/xlink" version="1.1" width="842pt" height="595pt" viewBox="0 0 842 595">
<g enable-background="new">
<clipPath id="cp0">
<path transform="matrix(1,0,0,-1,0,595)" d="M 0 0 L 842 0 L 842 595 L 0 595 Z "/>
</clipPath>
<g clip-path="url(#cp0)">
<path transform="matrix(1,0,0,-1,0,595)" d="M 0 595 L 842 595 L 842 0 L 0 0 Z " fill="#ffffff"/>
<path transform="matrix(1,0,0,-1,0,595)" d="M 0 595 L 842 595 L 842 0 L 0 0 Z "/>
<g id="Layer-1" data-name="P">
</g>
<clipPath id="cp1">
<path transform="matrix(1,0,0,-1,0,595)" d="M 31.69292 56.69292 L 810.3071 56.69292 L 810.3071 563.3071 L 31.69292 563.3071 Z "/>
</clipPath>
<g clip-path="url(#cp1)">
<text fill="#ffffff" xml:space="preserve" transform="matrix(1 0 -0 1 56.69292 254.893)" font-size="100" font-family="PFDin"><tspan y="0" x="0 55 110 165 220">IMAGE</tspan></text>
<g id="Layer-2" data-name="Span">
<text fill="#ffffff" xml:space="preserve" transform="matrix(1 0 -0 1 56.69292 254.893)" font-size="100" font-family="PFDin"><tspan y="0" x="275"> </tspan></text>
</g>
</g>
<g id="Layer-1" data-name="P">
<text fill="#ffffff" xml:space="preserve" transform="matrix(1 0 -0 1 56.69292 374.893)" font-size="100" font-family="PFDin"><tspan y="0" x="0 55 110 165 220 275 330 385 440">BELLEDONE</tspan></text>
<g id="Layer-2" data-name="Span">
<text fill="#ffffff" xml:space="preserve" transform="matrix(1 0 -0 1 56.69292 374.893)" font-size="100" font-family="PFDin"><tspan y="0" x="495"> </tspan></text>
</g>
</g>
</g>
</g>
</svg>
